PathFileType	4	(X/Y/Z)	/tmp/tmpjnq7zxqp/Me/MarkerData/squat03_segment_0.trc
DataRate	CameraRate	NumFrames	NumMarkers	Units	OrigDataRate	OrigDataStartFrame	OrigNumFrames
100.201	100.201	9	38	m	100.201	249	499
Frame#	Time	C7			CLAV			LANK			LASI			LBHD			LELB			LFHD			LFIN			LFRM			LHEE			LKNE			LPSI			LSHO			LTHI			LTIB			LTOE			LUPA			LWRA			LWRB			RANK			RBAK			RBHD			RELB			RFHD			RFIN			RFRM			RHEE			RKNE			RPSI			RSHO			RTHI			RTIB			RTOE			RUPA			RWRA			RWRB			STRN			T10		
		X1	Y1	Z1	X2	Y2	Z2	X3	Y3	Z3	X4	Y4	Z4	X5	Y5	Z5	X6	Y6	Z6	X7	Y7	Z7	X8	Y8	Z8	X9	Y9	Z9	X10	Y10	Z10	X11	Y11	Z11	X12	Y12	Z12	X13	Y13	Z13	X14	Y14	Z14	X15	Y15	Z15	X16	Y16	Z16	X17	Y17	Z17	X18	Y18	Z18	X19	Y19	Z19	X20	Y20	Z20	X21	Y21	Z21	X22	Y22	Z22	X23	Y23	Z23	X24	Y24	Z24	X25	Y25	Z25	X26	Y26	Z26	X27	Y27	Z27	X28	Y28	Z28	X29	Y29	Z29	X30	Y30	Z30	X31	Y31	Z31	X32	Y32	Z32	X33	Y33	Z33	X34	Y34	Z34	X35	Y35	Z35	X36	Y36	Z36	X37	Y37	Z37	X38	Y38	Z38

250	2.48501	-0.187516	0.868911	0.00167626	-0.334974	0.754508	0.0088349	-0.185545	0.0945231	0.212048	-0.0591333	0.45391	0.181388	-0.278909	0.984392	0.0880744	-0.528051	0.619494	0.259863	-0.394433	1.04197	0.0640319	-0.621332	0.765503	0.0390765	-0.620878	0.63539	0.132017	-0.118497	0.0614311	0.150235	-0.405072	0.414699	0.281397	0.0599824	0.464213	0.0562647	-0.282776	0.848087	0.174971	-0.221369	0.415494	0.260459	-0.263016	0.213153	0.252762	-0.355691	0.067061	0.186936	-0.388523	0.725988	0.260159	-0.592562	0.675554	0.0320838	-0.659116	0.68623	0.0600069	-0.18003	0.0991247	-0.18973	-0.143197	0.75658	-0.131877	-0.264418	0.98204	-0.0602475	-0.500404	0.608832	-0.262755	-0.378789	1.03039	-0.0647327	-0.627216	0.771978	-0.0535513	-0.567969	0.616959	-0.204628	-0.116712	0.0591061	-0.1157	-0.374132	0.423202	-0.264658	0.0591568	0.459739	0.00158036	-0.295819	0.833803	-0.159726	-0.09155	0.436412	-0.168453	-0.326789	0.310699	-0.273843	-0.342169	0.0632456	-0.177454	-0.42671	0.667775	-0.251554	-0.589098	0.686417	-0.04296	-0.656046	0.684012	-0.0740008	-0.320803	0.593534	0.0197688	-0.0712619	0.687779	0.0115438
251	2.49499	-0.187451	0.868849	0.00162061	-0.334546	0.754111	0.00875138	-0.18549	0.0944961	0.212126	-0.0588369	0.453934	0.181236	-0.278814	0.984246	0.0880282	-0.528122	0.619262	0.259516	-0.394284	1.04193	0.0639975	-0.621351	0.76539	0.0387418	-0.620933	0.635232	0.131632	-0.117992	0.0618896	0.150247	-0.404845	0.414847	0.2814	0.0601235	0.464184	0.0560089	-0.282805	0.847926	0.174905	-0.221063	0.415559	0.260291	-0.262857	0.213218	0.252809	-0.355681	0.0670873	0.186917	-0.388604	0.725769	0.25997	-0.592646	0.675351	0.0315829	-0.659149	0.686101	0.0596394	-0.180068	0.0991281	-0.189701	-0.143147	0.756502	-0.131932	-0.264283	0.981917	-0.0602848	-0.500327	0.608852	-0.263105	-0.378594	1.0304	-0.0647695	-0.627217	0.771843	-0.0539061	-0.567929	0.616943	-0.204996	-0.116729	0.0591162	-0.115696	-0.374088	0.423188	-0.264684	0.0592962	0.459708	0.00131235	-0.295784	0.83373	-0.159814	-0.091512	0.436436	-0.168597	-0.326749	0.31068	-0.273853	-0.342173	0.0632197	-0.177464	-0.426602	0.667754	-0.25185	-0.58914	0.686309	-0.0432969	-0.656076	0.683877	-0.0743791	-0.320703	0.593362	0.019702	-0.0712295	0.687678	0.011397
252	2.50497	-0.187423	0.868847	0.00156506	-0.334316	0.753908	0.00866863	-0.185415	0.0944739	0.21221	-0.0585412	0.454017	0.181051	-0.278747	0.98415	0.0879718	-0.528144	0.61902	0.259166	-0.394169	1.04194	0.0639894	-0.621395	0.765259	0.0384522	-0.620962	0.63504	0.131269	-0.117773	0.0620619	0.150273	-0.40429	0.415113	0.281322	0.0602679	0.46425	0.0557768	-0.282836	0.847828	0.174846	-0.220709	0.415704	0.260132	-0.26265	0.213305	0.252853	-0.355656	0.0671167	0.186899	-0.388668	0.725561	0.259775	-0.592735	0.675142	0.0310957	-0.65917	0.685958	0.0592861	-0.180075	0.0991295	-0.189688	-0.143112	0.756506	-0.132005	-0.264186	0.981872	-0.0603144	-0.500277	0.608895	-0.263438	-0.378465	1.03046	-0.0647839	-0.627261	0.7717	-0.0542094	-0.567926	0.616936	-0.205312	-0.11673	0.0590935	-0.115676	-0.374029	0.423186	-0.264704	0.0594582	0.4598	0.00105182	-0.295779	0.833726	-0.1599	-0.0914636	0.436534	-0.168691	-0.326734	0.310657	-0.273848	-0.342168	0.0632093	-0.17748	-0.426533	0.667769	-0.252106	-0.589181	0.68621	-0.0435578	-0.656104	0.683752	-0.0746812	-0.320611	0.593245	0.0196433	-0.0711899	0.687694	0.0112503
253	2.51495	-0.187433	0.868908	0.00150988	-0.334405	0.753991	0.00856884	-0.18532	0.0944397	0.212339	-0.0582598	0.454191	0.180854	-0.278679	0.984133	0.0879301	-0.528118	0.618799	0.258828	-0.394078	1.04199	0.0640085	-0.62147	0.765118	0.0382151	-0.620962	0.634828	0.130932	-0.117744	0.0620405	0.150296	-0.403619	0.415369	0.281177	0.0604524	0.46443	0.055573	-0.282867	0.847804	0.174787	-0.220305	0.415936	0.260009	-0.262428	0.213401	0.252881	-0.355633	0.0671401	0.186887	-0.388687	0.725382	0.259585	-0.592851	0.674911	0.0306928	-0.659226	0.685798	0.0590119	-0.180053	0.0991142	-0.189696	-0.143092	0.756602	-0.132097	-0.264132	0.981921	-0.0603359	-0.500249	0.60897	-0.263741	-0.378375	1.03057	-0.0647626	-0.627348	0.771571	-0.0544733	-0.567951	0.616975	-0.205594	-0.116722	0.0590636	-0.115669	-0.373968	0.423196	-0.264701	0.0596635	0.460019	0.000810546	-0.295794	0.83378	-0.159973	-0.0913863	0.436703	-0.168759	-0.326716	0.310642	-0.273832	-0.342152	0.0632042	-0.177486	-0.426498	0.667831	-0.252326	-0.589218	0.686132	-0.0437534	-0.656129	0.683646	-0.0749181	-0.32053	0.593216	0.019585	-0.0711234	0.687814	0.0111109
254	2.52493	-0.187459	0.869065	0.00145553	-0.334727	0.754305	0.00846453	-0.185191	0.0944143	0.212524	-0.0579571	0.454472	0.180668	-0.278618	0.984189	0.0879076	-0.528039	0.61861	0.258513	-0.394017	1.04209	0.0640396	-0.621574	0.764959	0.038033	-0.620929	0.634617	0.130624	-0.117704	0.0620284	0.150305	-0.403112	0.4156	0.281195	0.0606757	0.464716	0.0553822	-0.282895	0.847867	0.174728	-0.219885	0.416202	0.259905	-0.262184	0.213492	0.252961	-0.355615	0.0671683	0.186878	-0.388664	0.725262	0.259416	-0.592957	0.674662	0.0303306	-0.659278	0.685622	0.0587775	-0.180031	0.0990914	-0.189699	-0.143085	0.756787	-0.132203	-0.264127	0.98206	-0.0603614	-0.50022	0.609084	-0.263995	-0.378291	1.03073	-0.064685	-0.627464	0.771468	-0.0546781	-0.567948	0.617036	-0.205851	-0.116712	0.0590416	-0.115693	-0.373895	0.423229	-0.264685	0.0598756	0.460348	0.000612623	-0.295828	0.833891	-0.16004	-0.0912788	0.436949	-0.168848	-0.32673	0.310646	-0.273871	-0.342139	0.0632033	-0.177482	-0.426476	0.667955	-0.252513	-0.589279	0.686055	-0.0439344	-0.656178	0.683543	-0.0751405	-0.320463	0.593274	0.019532	-0.0710394	0.687969	0.0110237
255	2.53491	-0.187493	0.869326	0.00139924	-0.334865	0.754571	0.00837589	-0.185125	0.0943967	0.212602	-0.0576264	0.454835	0.180515	-0.278559	0.984332	0.0879097	-0.527916	0.618457	0.258229	-0.393984	1.04226	0.0640722	-0.621692	0.764802	0.0379016	-0.62087	0.634432	0.130355	-0.117644	0.0620225	0.150322	-0.402716	0.415801	0.281338	0.0609221	0.465109	0.0552008	-0.282922	0.848006	0.174684	-0.219473	0.416477	0.25983	-0.26182	0.213555	0.25324	-0.355579	0.0672145	0.186871	-0.388615	0.725207	0.259268	-0.593054	0.674402	0.0299949	-0.659322	0.685435	0.0585702	-0.180016	0.0990864	-0.189706	-0.143085	0.757073	-0.132319	-0.26414	0.982254	-0.0603899	-0.500182	0.609245	-0.264213	-0.378202	1.03091	-0.0645487	-0.627603	0.771379	-0.0548315	-0.567933	0.617119	-0.206071	-0.1167	0.0590057	-0.115704	-0.373812	0.423284	-0.264661	0.0601256	0.460802	0.000435206	-0.295873	0.834075	-0.160112	-0.0911263	0.437257	-0.168955	-0.326833	0.310636	-0.273952	-0.342139	0.0632117	-0.177465	-0.426443	0.668134	-0.252653	-0.589364	0.68597	-0.0440967	-0.65625	0.683431	-0.0753441	-0.320387	0.593418	0.0194676	-0.0709573	0.68818	0.0109769
256	2.54489	-0.187569	0.869645	0.00134711	-0.334876	0.754839	0.00830619	-0.185112	0.0943758	0.212572	-0.0573021	0.455256	0.180365	-0.278542	0.984579	0.0879011	-0.527751	0.618342	0.25798	-0.394	1.0425	0.0640985	-0.621809	0.764655	0.0378009	-0.620802	0.634263	0.13015	-0.117737	0.0618383	0.150349	-0.402342	0.415968	0.281551	0.0612115	0.465627	0.0550152	-0.282959	0.848227	0.174655	-0.219057	0.416755	0.259788	-0.261377	0.213619	0.253667	-0.355523	0.0672666	0.186873	-0.38854	0.72521	0.259136	-0.593157	0.674153	0.0297146	-0.65937	0.685258	0.0584187	-0.180008	0.0990902	-0.1897	-0.143076	0.75746	-0.132419	-0.264204	0.982541	-0.0604337	-0.500114	0.609444	-0.264396	-0.378261	1.03118	-0.0645218	-0.627744	0.771294	-0.0549525	-0.567902	0.617217	-0.206255	-0.116686	0.0589995	-0.115711	-0.373733	0.423338	-0.264608	0.060404	0.461358	0.000247023	-0.29592	0.83434	-0.160169	-0.0909308	0.437638	-0.169088	-0.32693	0.310599	-0.273941	-0.342128	0.0632125	-0.17746	-0.426399	0.668345	-0.252748	-0.589451	0.685903	-0.0442382	-0.656324	0.683338	-0.0755269	-0.320292	0.593638	0.0193931	-0.0708781	0.688642	0.0108197
257	2.55487	-0.187686	0.869996	0.00128438	-0.334785	0.755124	0.00825571	-0.185063	0.0943518	0.212592	-0.0570132	0.45575	0.180196	-0.278564	0.984918	0.0878459	-0.527525	0.618272	0.257779	-0.394057	1.0428	0.0641167	-0.621926	0.764524	0.0377348	-0.620711	0.634124	0.130006	-0.118057	0.0614101	0.150397	-0.401935	0.41612	0.281807	0.0615341	0.466264	0.0548278	-0.28299	0.848525	0.174629	-0.218637	0.417055	0.259782	-0.261157	0.213729	0.253616	-0.35547	0.0673219	0.186886	-0.388422	0.72528	0.259023	-0.593256	0.673932	0.0294981	-0.659413	0.685109	0.0583309	-0.180012	0.0990851	-0.189689	-0.143066	0.757941	-0.132493	-0.264308	0.982906	-0.0604863	-0.500005	0.609672	-0.264546	-0.37846	1.03154	-0.064598	-0.627886	0.771211	-0.0550447	-0.567817	0.617324	-0.206412	-0.116677	0.0590091	-0.115709	-0.373658	0.423403	-0.264528	0.06071	0.461995	6.41093e-05	-0.295973	0.834681	-0.16021	-0.0907153	0.438094	-0.169252	-0.326982	0.31056	-0.273839	-0.342123	0.0632052	-0.177453	-0.426363	0.668601	-0.252818	-0.589521	0.685849	-0.0443492	-0.656382	0.683257	-0.0756792	-0.320196	0.593912	0.0193155	-0.0708078	0.689175	0.0106972
258	2.56485	-0.18784	0.87041	0.00123368	-0.334576	0.755409	0.0082322	-0.184998	0.0943361	0.212663	-0.0567323	0.456344	0.180048	-0.278637	0.98536	0.0877617	-0.527252	0.618257	0.257632	-0.394145	1.04321	0.0641225	-0.622037	0.764423	0.0377048	-0.620585	0.634025	0.129924	-0.118185	0.0612181	0.150427	-0.40152	0.416266	0.282116	0.0618459	0.466981	0.0546599	-0.282994	0.848899	0.174617	-0.218261	0.417398	0.259838	-0.260967	0.21381	0.253596	-0.355416	0.0673645	0.186902	-0.388258	0.72545	0.258938	-0.593337	0.673741	0.0293387	-0.659439	0.68499	0.0583002	-0.180034	0.0990902	-0.189669	-0.143046	0.758524	-0.132563	-0.264437	0.983358	-0.060546	-0.499842	0.609918	-0.26465	-0.378636	1.03196	-0.0646311	-0.628024	0.771136	-0.0551098	-0.567688	0.617428	-0.206533	-0.116676	0.0590253	-0.115712	-0.373592	0.423505	-0.264425	0.0610088	0.462693	-0.000104967	-0.296049	0.835103	-0.160234	-0.0904906	0.43863	-0.169438	-0.326952	0.31056	-0.273659	-0.34213	0.0631947	-0.177434	-0.426298	0.668914	-0.252877	-0.589556	0.685779	-0.0444132	-0.656404	0.68316	-0.0757846	-0.320117	0.594248	0.0192268	-0.0707542	0.689762	0.0106062
